<svg width="10" height="19" viewBox="0 0 10 19" fill="none" xmlns="http://www.w3.org/2000/svg">
<path d="M9.5 3.125H6.5C5.9477 3.125 5.5 3.57272 5.5 4.125V7.125H9.5C9.6137 7.12248 9.7216 7.1754 9.7892 7.2669C9.8568 7.3584 9.8758 7.477 9.84 7.585L9.1 9.785C9.0318 9.9869 8.8431 10.1234 8.63 10.125H5.5V17.625C5.5 17.9011 5.2761 18.125 5 18.125H2.5C2.22386 18.125 2 17.9011 2 17.625V10.125H0.5C0.22386 10.125 0 9.9011 0 9.625V7.625C0 7.3489 0.22386 7.125 0.5 7.125H2V4.125C2 1.91586 3.7909 0.125 6 0.125H9.5C9.7761 0.125 10 0.34886 10 0.625V2.625C10 2.90114 9.7761 3.125 9.5 3.125Z" fill="#2A2C1F"/>
</svg>
