<svg width="18" height="19" viewBox="0 0 18 19" fill="none" xmlns="http://www.w3.org/2000/svg">
<path fill-rule="evenodd" clip-rule="evenodd" d="M13 0.125H5C2.23858 0.125 0 2.36358 0 5.125V13.125C0 15.8864 2.23858 18.125 5 18.125H13C15.7614 18.125 18 15.8864 18 13.125V5.125C18 2.36358 15.7614 0.125 13 0.125ZM16.25 13.125C16.2445 14.9176 14.7926 16.3695 13 16.375H5C3.20735 16.3695 1.75549 14.9176 1.75 13.125V5.125C1.75549 3.33235 3.20735 1.88049 5 1.875H13C14.7926 1.88049 16.2445 3.33235 16.25 5.125V13.125ZM13.75 5.375C14.3023 5.375 14.75 4.92728 14.75 4.375C14.75 3.82272 14.3023 3.375 13.75 3.375C13.1977 3.375 12.75 3.82272 12.75 4.375C12.75 4.92728 13.1977 5.375 13.75 5.375ZM9 4.625C6.51472 4.625 4.5 6.63972 4.5 9.125C4.5 11.6103 6.51472 13.625 9 13.625C11.4853 13.625 13.5 11.6103 13.5 9.125C13.5027 7.9307 13.0294 6.78457 12.1849 5.94008C11.3404 5.09559 10.1943 4.62234 9 4.625ZM6.25 9.125C6.25 10.6438 7.4812 11.875 9 11.875C10.5188 11.875 11.75 10.6438 11.75 9.125C11.75 7.6062 10.5188 6.375 9 6.375C7.4812 6.375 6.25 7.6062 6.25 9.125Z" fill="#2A2C1F"/>
</svg>
