<svg width="30" height="16" viewBox="0 0 30 16" fill="none" xmlns="http://www.w3.org/2000/svg">
<path d="M26.7778 5.3125H15.6528C15.2778 4.27083 14.7153 3.35417 13.9653 2.5625C13.257 1.77083 12.382 1.14583 11.3403 0.6875C10.3403 0.229167 9.257 0 8.09033 0C6.632 0 5.29867 0.375 4.09033 1.125C2.882 1.83333 1.90283 2.79167 1.15283 4C0.444499 5.20833 0.090332 6.54167 0.090332 8C0.090332 9.45833 0.444499 10.7917 1.15283 12C1.90283 13.2083 2.882 14.1875 4.09033 14.9375C5.29867 15.6458 6.632 16 8.09033 16C9.257 16 10.3403 15.7708 11.3403 15.3125C12.382 14.8542 13.257 14.2292 13.9653 13.4375C14.7153 12.6458 15.2778 11.7292 15.6528 10.6875H16.0903L18.7778 13.3125L21.4653 10.6875L24.0903 13.3125L29.4653 7.9375L26.7778 5.3125ZM8.09033 12C7.382 12 6.71533 11.8333 6.09033 11.5C5.507 11.125 5.02783 10.6458 4.65283 10.0625C4.27783 9.4375 4.09033 8.75 4.09033 8C4.09033 7.25 4.27783 6.58333 4.65283 6C5.02783 5.375 5.507 4.89583 6.09033 4.5625C6.71533 4.1875 7.382 4 8.09033 4C8.84033 4 9.507 4.1875 10.0903 4.5625C10.7153 4.89583 11.1945 5.375 11.5278 6C11.9028 6.58333 12.0903 7.25 12.0903 8C12.0903 8.75 11.9028 9.4375 11.5278 10.0625C11.1945 10.6458 10.7153 11.125 10.0903 11.5C9.507 11.8333 8.84033 12 8.09033 12Z" fill="#CF6F49"/>
</svg>
