<svg width="18" height="19" viewBox="0 0 18 19" fill="none" xmlns="http://www.w3.org/2000/svg">
<path fill-rule="evenodd" clip-rule="evenodd" d="M2 0.125H16C17.1046 0.125 18 1.02043 18 2.125V16.125C18 17.2296 17.1046 18.125 16 18.125H2C0.89543 18.125 0 17.2296 0 16.125V2.125C0 1.02043 0.89543 0.125 2 0.125ZM5 15.125C5.27614 15.125 5.5 14.9011 5.5 14.625V7.625C5.5 7.3489 5.27614 7.125 5 7.125H3.5C3.22386 7.125 3 7.3489 3 7.625V14.625C3 14.9011 3.22386 15.125 3.5 15.125H5ZM4.25 6.125C3.42157 6.125 2.75 5.45343 2.75 4.625C2.75 3.79657 3.42157 3.125 4.25 3.125C5.07843 3.125 5.75 3.79657 5.75 4.625C5.75 5.45343 5.07843 6.125 4.25 6.125ZM14.5 15.125C14.7761 15.125 15 14.9011 15 14.625V10.025C15.0325 8.4358 13.8576 7.07952 12.28 6.885C11.177 6.78425 10.1083 7.2994 9.5 8.225V7.625C9.5 7.3489 9.2761 7.125 9 7.125H7.5C7.2239 7.125 7 7.3489 7 7.625V14.625C7 14.9011 7.2239 15.125 7.5 15.125H9C9.2761 15.125 9.5 14.9011 9.5 14.625V10.875C9.5 10.0466 10.1716 9.375 11 9.375C11.8284 9.375 12.5 10.0466 12.5 10.875V14.625C12.5 14.9011 12.7239 15.125 13 15.125H14.5Z" fill="#2A2C1F"/>
</svg>
