<svg width="121" height="24" viewBox="0 0 121 24" fill="none" xmlns="http://www.w3.org/2000/svg">
<g clip-path="url(#clip0_5_92)">
<path d="M38.8665 19.39C38.2616 19.4222 37.6634 19.2531 37.1682 18.91C36.9613 18.7592 36.7948 18.5611 36.6832 18.3329C36.5716 18.1046 36.5182 17.8531 36.5275 17.6V8.33C36.5226 8.29075 36.5268 8.25091 36.5398 8.21351C36.553 8.17611 36.5745 8.14214 36.603 8.11418C36.6314 8.08621 36.6659 8.065 36.704 8.05214C36.742 8.03929 36.7825 8.03514 36.8224 8.04H38.5309C38.7241 8.04 38.8157 8.14 38.8157 8.33V16.88C38.8157 17.26 38.9885 17.45 39.3445 17.45C39.4953 17.4561 39.6463 17.4393 39.7919 17.4C39.9953 17.4 40.1072 17.46 40.1174 17.64L40.2699 18.89C40.2772 18.9264 40.2765 18.964 40.2679 19.0002C40.2591 19.0363 40.2427 19.0702 40.2196 19.0996C40.1965 19.129 40.1672 19.1531 40.1337 19.1705C40.1004 19.1878 40.0636 19.1978 40.0258 19.2C39.6516 19.3215 39.2606 19.3856 38.8665 19.39Z" fill="#737680"/>
<path d="M48.4767 18.32C47.6183 19.0175 46.5394 19.399 45.4258 19.399C44.3123 19.399 43.2335 19.0175 42.375 18.32C41.6205 17.571 41.1971 16.5593 41.1971 15.505C41.1971 14.4507 41.6205 13.439 42.375 12.69C43.2351 11.9961 44.3133 11.6169 45.4258 11.6169C46.5384 11.6169 47.6165 11.9961 48.4767 12.69C49.2139 13.4459 49.6254 14.4527 49.6254 15.5C49.6254 16.5473 49.2139 17.5541 48.4767 18.31V18.32ZM43.9818 17C44.3802 17.3548 44.8984 17.5514 45.436 17.5514C45.9736 17.5514 46.4919 17.3548 46.8902 17C47.2508 16.5923 47.4493 16.0703 47.4493 15.53C47.4493 14.9897 47.2508 14.4676 46.8902 14.06C46.4919 13.7051 45.9736 13.5086 45.436 13.5086C44.8984 13.5086 44.3802 13.7051 43.9818 14.06C43.6212 14.4676 43.4226 14.9897 43.4226 15.53C43.4226 16.0703 43.6212 16.5923 43.9818 17Z" fill="#737680"/>
<path d="M59.0326 11.87C59.2258 11.87 59.3173 11.97 59.3173 12.16V19.33C59.3351 19.8139 59.243 20.2957 59.0477 20.7402C58.8525 21.1848 58.559 21.581 58.1885 21.9C57.3662 22.5894 56.3088 22.9468 55.2292 22.9C54.2541 22.9337 53.292 22.6719 52.4733 22.15C52.1236 21.9242 51.825 21.6302 51.5957 21.2861C51.3666 20.9421 51.2119 20.5554 51.1411 20.15C51.1411 19.95 51.1411 19.86 51.4156 19.86H53.1241C53.1966 19.8624 53.2669 19.8854 53.3265 19.9262C53.386 19.967 53.4323 20.0239 53.4597 20.09C53.5705 20.3937 53.7913 20.6465 54.0801 20.8C54.4318 20.9785 54.8232 21.0678 55.219 21.06C55.4578 21.0729 55.6968 21.0388 55.9221 20.9598C56.1473 20.8808 56.3543 20.7585 56.5309 20.6C56.6922 20.4342 56.8178 20.2379 56.9 20.0231C56.982 19.8083 57.0191 19.5793 57.0089 19.35V18.72C56.3972 19.1624 55.6527 19.3912 54.8936 19.37C54.3624 19.389 53.8326 19.3022 53.3364 19.1149C52.8401 18.9276 52.3873 18.6436 52.0055 18.28C51.2723 17.5341 50.8624 16.5374 50.8624 15.5C50.8624 14.4626 51.2723 13.4659 52.0055 12.72C52.3892 12.3596 52.8424 12.0783 53.3385 11.8929C53.8345 11.7074 54.3633 11.6214 54.8936 11.64C55.6746 11.6197 56.4391 11.8632 57.0597 12.33V12.17C57.055 12.1317 57.0591 12.0928 57.0716 12.0562C57.0841 12.0196 57.1048 11.9863 57.132 11.9585C57.1593 11.9307 57.1925 11.9093 57.2292 11.8957C57.266 11.8821 57.3053 11.8768 57.3445 11.88L59.0326 11.87ZM55.0868 17.59C55.3488 17.598 55.6093 17.5493 55.8502 17.4473C56.0909 17.3454 56.306 17.1927 56.4801 17C56.8181 16.5707 57.0015 16.043 57.0015 15.5C57.0015 14.957 56.8181 14.4293 56.4801 14C56.3066 13.8099 56.0928 13.6595 55.8538 13.5593C55.6149 13.4591 55.3566 13.4116 55.097 13.42C54.832 13.4118 54.5683 13.4603 54.3242 13.5622C54.0802 13.6641 53.8615 13.8169 53.6834 14.01C53.3089 14.4207 53.1119 14.9588 53.1343 15.51C53.1159 16.0558 53.3085 16.5882 53.6733 17C53.8517 17.1926 54.0705 17.345 54.3145 17.4469C54.5584 17.5487 54.8219 17.5975 55.0868 17.59Z" fill="#737680"/>
<path d="M68.0936 18.32C67.2335 19.0139 66.1553 19.3931 65.0428 19.3931C63.9303 19.3931 62.8521 19.0139 61.9919 18.32C61.2542 17.5624 60.8423 16.5539 60.8423 15.505C60.8423 14.456 61.2542 13.4476 61.9919 12.69C62.8529 11.9979 63.9308 11.6198 65.0428 11.6198C66.1548 11.6198 67.2327 11.9979 68.0936 12.69C68.8308 13.4459 69.2424 14.4527 69.2424 15.5C69.2424 16.5473 68.8308 17.5541 68.0936 18.31V18.32ZM63.5886 17C63.7835 17.1824 64.0133 17.3249 64.2647 17.4193C64.5161 17.5137 64.784 17.5581 65.053 17.55C65.3202 17.5568 65.5863 17.5117 65.8358 17.4174C66.0853 17.323 66.3135 17.1812 66.5072 17C66.8619 16.5896 67.0567 16.0686 67.0567 15.53C67.0567 14.9914 66.8619 14.4704 66.5072 14.06C66.3135 13.8788 66.0853 13.737 65.8358 13.6426C65.5863 13.5483 65.3202 13.5032 65.053 13.51C64.784 13.5018 64.5161 13.5463 64.2647 13.6407C64.0133 13.7351 63.7835 13.8776 63.5886 14.06C63.2338 14.4704 63.0391 14.9914 63.0391 15.53C63.0391 16.0686 63.2338 16.5896 63.5886 17Z" fill="#737680"/>
<path d="M72.914 10.17C72.6452 10.4014 72.3001 10.5289 71.9428 10.5289C71.5856 10.5289 71.2405 10.4014 70.9716 10.17C70.8498 10.0569 70.7527 9.92051 70.6863 9.76919C70.62 9.61787 70.5857 9.45481 70.5857 9.29002C70.5857 9.12522 70.62 8.96216 70.6863 8.81084C70.7527 8.65952 70.8498 8.52312 70.9716 8.41002C71.2432 8.18443 71.5873 8.06067 71.9428 8.06067C72.2983 8.06067 72.6424 8.18443 72.914 8.41002C73.0359 8.52312 73.1329 8.65952 73.1994 8.81084C73.2658 8.96216 73.2999 9.12522 73.2999 9.29002C73.2999 9.45481 73.2658 9.61787 73.1994 9.76919C73.1329 9.92051 73.0359 10.0569 72.914 10.17ZM73.1276 19.39C72.5231 19.4192 71.9258 19.2504 71.4293 18.91C71.2255 18.757 71.0619 18.5582 70.9523 18.3303C70.8426 18.1024 70.7899 17.852 70.7987 17.6V12.16C70.7939 12.1208 70.798 12.0809 70.8111 12.0435C70.8242 12.0061 70.8457 11.9722 70.8742 11.9442C70.9027 11.9162 70.9371 11.895 70.9752 11.8822C71.0132 11.8693 71.0538 11.8652 71.0937 11.87H72.8021C72.9954 11.87 73.0869 11.97 73.0869 12.16V16.88C73.0869 17.26 73.2598 17.45 73.6055 17.45C73.7598 17.4555 73.914 17.4386 74.0631 17.4C74.2665 17.4 74.3784 17.46 74.3886 17.64L74.5411 18.89C74.5484 18.9265 74.5477 18.964 74.5391 19.0002C74.5304 19.0363 74.514 19.0702 74.4908 19.0996C74.4677 19.129 74.4384 19.1532 74.405 19.1705C74.3716 19.1878 74.3348 19.1979 74.297 19.2C73.9196 19.3223 73.5251 19.3864 73.1276 19.39Z" fill="#737680"/>
<path d="M80.8258 11.63C81.3594 11.6093 81.8919 11.6942 82.3915 11.8797C82.8911 12.0652 83.3478 12.3476 83.7343 12.71C84.4534 13.4689 84.8533 14.4677 84.8533 15.505C84.8533 16.5423 84.4534 17.5411 83.7343 18.3C83.3497 18.6656 82.8936 18.9508 82.3937 19.1381C81.8937 19.3255 81.3603 19.4112 80.8258 19.39C80.0642 19.4067 79.318 19.1784 78.7004 18.74V22.35C78.7004 22.54 78.5987 22.63 78.4055 22.63H76.697C76.6581 22.6372 76.6179 22.6349 76.58 22.6233C76.5421 22.6118 76.5077 22.5914 76.4796 22.5638C76.4515 22.5362 76.4308 22.5023 76.4191 22.4651C76.4073 22.4278 76.4049 22.3883 76.4123 22.35V14.15C76.4243 14.0698 76.4169 13.988 76.391 13.911C76.3652 13.8341 76.3212 13.7641 76.263 13.7068C76.2047 13.6495 76.1336 13.6064 76.0553 13.5809C75.977 13.5554 75.8938 13.5482 75.8123 13.56H75.4767C75.2529 13.56 75.1411 13.48 75.1411 13.32V12.14C75.1358 12.067 75.1561 11.9944 75.1987 11.9344C75.2412 11.8743 75.3035 11.8304 75.375 11.81C75.7267 11.6843 76.099 11.6233 76.4733 11.63C76.8465 11.5975 77.221 11.6753 77.549 11.8535C77.8769 12.0317 78.1433 12.302 78.314 12.63C78.6415 12.3042 79.0332 12.0474 79.4651 11.8755C79.8969 11.7036 80.36 11.62 80.8258 11.63ZM79.2394 17C79.4207 17.1864 79.6385 17.3347 79.8798 17.436C80.1209 17.5373 80.3805 17.5895 80.6428 17.5895C80.905 17.5895 81.1646 17.5373 81.4058 17.436C81.647 17.3347 81.8648 17.1864 82.0462 17C82.4281 16.5811 82.6288 16.0322 82.6055 15.47C82.6321 14.9073 82.431 14.3572 82.0462 13.94C81.8648 13.7537 81.647 13.6054 81.4058 13.504C81.1646 13.4027 80.905 13.3505 80.6428 13.3505C80.3805 13.3505 80.1209 13.4027 79.8798 13.504C79.6385 13.6054 79.4207 13.7537 79.2394 13.94C78.8693 14.3646 78.6767 14.9113 78.7004 15.47C78.6798 16.0283 78.872 16.5739 79.2394 17Z" fill="#737680"/>
<path d="M89.653 19.39C88.74 19.4269 87.8348 19.2122 87.0394 18.77C86.7202 18.581 86.4485 18.3237 86.2443 18.0173C86.0401 17.7109 85.9086 17.3632 85.8597 17C85.8597 16.8 85.9309 16.7 86.1547 16.7H87.6496C87.7207 16.7027 87.7896 16.7247 87.8488 16.7635C87.9081 16.8024 87.9553 16.8565 87.9852 16.92C88.1987 17.46 88.758 17.73 89.653 17.73C89.9651 17.744 90.2759 17.6822 90.558 17.55C90.6554 17.5068 90.739 17.4384 90.7999 17.3521C90.8608 17.2658 90.8967 17.1648 90.9038 17.06C90.9038 16.8 90.7411 16.62 90.4157 16.5C90.0296 16.3737 89.6306 16.2898 89.2258 16.25C88.7463 16.1966 88.2707 16.1131 87.8021 16C87.3463 15.8986 86.9319 15.6652 86.6123 15.33C86.4241 15.1022 86.2854 14.8387 86.2052 14.556C86.125 14.2733 86.1046 13.9773 86.1457 13.6866C86.1867 13.3958 86.2881 13.1164 86.4436 12.8659C86.5991 12.6153 86.8053 12.3989 87.0496 12.23C87.7825 11.7709 88.6425 11.5472 89.5106 11.59C90.3509 11.5621 91.1825 11.7665 91.9106 12.18C92.204 12.3435 92.4567 12.5692 92.6502 12.8408C92.8437 13.1124 92.9732 13.423 93.0292 13.75C93.0292 13.95 92.9377 14.05 92.7547 14.05H91.2496C91.1862 14.0537 91.1232 14.0385 91.0688 14.0064C91.0142 13.9743 90.9709 13.9267 90.9445 13.87C90.8439 13.6332 90.6546 13.4434 90.4157 13.34C90.1462 13.2014 89.8452 13.1325 89.5411 13.14C89.2429 13.1241 88.9456 13.1826 88.6767 13.31C88.5819 13.346 88.5003 13.409 88.4423 13.491C88.3842 13.573 88.3526 13.6701 88.3513 13.77C88.3578 13.9068 88.4086 14.0379 88.4965 14.1441C88.5844 14.2502 88.7046 14.3259 88.8394 14.36C89.2299 14.5047 89.6359 14.6054 90.0496 14.66C90.5252 14.7216 90.9971 14.8083 91.4631 14.92C91.9188 15.0215 92.3333 15.2548 92.653 15.59C92.8239 15.7747 92.956 15.9908 93.0415 16.226C93.1271 16.4611 93.1644 16.7106 93.1513 16.96C93.16 17.3057 93.0774 17.6477 92.9118 17.9527C92.746 18.2576 92.5027 18.5151 92.2055 18.7C91.4456 19.1797 90.5553 19.4203 89.653 19.39Z" fill="#737680"/>
<path d="M103.9 18.89C103.907 18.9255 103.904 18.9618 103.896 18.9967C103.887 19.0316 103.872 19.0645 103.85 19.0934C103.828 19.1222 103.801 19.1466 103.769 19.1649C103.738 19.1832 103.703 19.1951 103.667 19.2C103.295 19.3192 102.908 19.3832 102.517 19.39C102.131 19.4294 101.741 19.3699 101.384 19.2175C101.028 19.0651 100.718 18.8249 100.483 18.52C99.7651 19.1273 98.8363 19.4389 97.8903 19.39C97.4509 19.4099 97.0123 19.3392 96.6025 19.1825C96.1927 19.0258 95.8208 18.7865 95.5106 18.48C95.2026 18.1589 94.9636 17.7799 94.8081 17.3658C94.6526 16.9516 94.5837 16.5109 94.6055 16.07V12.16C94.6055 11.97 94.697 11.87 94.8903 11.87H96.5987C96.792 11.87 96.8835 11.97 96.8835 12.16V15.77C96.8649 16.2198 97.0213 16.6596 97.3208 17C97.4703 17.1559 97.652 17.2786 97.8537 17.3596C98.0554 17.4407 98.2724 17.4784 98.4903 17.47C98.7131 17.4796 98.9357 17.4456 99.1452 17.3701C99.3547 17.2946 99.5468 17.179 99.7106 17.03C99.8656 16.873 99.9861 16.6863 100.065 16.4816C100.144 16.277 100.179 16.0586 100.168 15.84V12.16C100.168 11.97 100.26 11.87 100.453 11.87H102.182C102.375 11.87 102.467 11.97 102.467 12.16V16.87C102.467 17.26 102.639 17.45 102.975 17.45C103.133 17.456 103.29 17.4391 103.443 17.4C103.481 17.3894 103.521 17.3875 103.561 17.3944C103.6 17.4014 103.637 17.417 103.67 17.4401C103.702 17.4632 103.729 17.4931 103.747 17.5278C103.766 17.5624 103.776 17.6008 103.778 17.64L103.9 18.89Z" fill="#737680"/>
<path d="M120.06 18.89C120.069 18.9258 120.07 18.9631 120.063 18.9993C120.055 19.0355 120.039 19.0697 120.017 19.0993C119.995 19.1289 119.966 19.1533 119.933 19.1707C119.9 19.1881 119.864 19.1981 119.826 19.2C119.448 19.3209 119.054 19.3849 118.656 19.39C118.051 19.4207 117.454 19.2517 116.958 18.91C116.744 18.7636 116.57 18.5675 116.451 18.339C116.332 18.1104 116.272 17.8566 116.277 17.6V15.25C116.298 14.8016 116.146 14.3619 115.85 14.02C115.707 13.8637 115.53 13.7405 115.334 13.6592C115.137 13.5779 114.924 13.5406 114.711 13.55C114.518 13.5429 114.327 13.5787 114.15 13.655C113.974 13.7312 113.818 13.8457 113.694 13.99C113.425 14.3251 113.288 14.7438 113.307 15.17V18.86C113.307 19.05 113.216 19.15 113.022 19.15H111.304C111.264 19.1549 111.224 19.1507 111.185 19.1379C111.147 19.125 111.113 19.1038 111.084 19.0758C111.056 19.0479 111.034 19.0139 111.021 18.9765C111.008 18.9391 111.004 18.8992 111.009 18.86V15.25C111.031 14.8065 110.89 14.3699 110.612 14.02C110.488 13.873 110.333 13.7547 110.157 13.6735C109.982 13.5922 109.79 13.5501 109.595 13.55C109.388 13.5418 109.181 13.5767 108.988 13.6525C108.795 13.7284 108.621 13.8434 108.477 13.99C108.186 14.3144 108.036 14.7381 108.06 15.17V18.86C108.065 18.8992 108.061 18.9391 108.048 18.9765C108.034 19.0139 108.013 19.0479 107.985 19.0758C107.956 19.1038 107.921 19.125 107.883 19.1379C107.845 19.1507 107.805 19.1549 107.765 19.15H106.107C105.914 19.15 105.822 19.05 105.822 18.86V14.15C105.835 14.0698 105.828 13.988 105.801 13.911C105.776 13.834 105.732 13.7641 105.673 13.7068C105.615 13.6495 105.544 13.6064 105.466 13.5809C105.387 13.5554 105.304 13.5482 105.222 13.56H104.887C104.663 13.56 104.551 13.48 104.551 13.32V12.14C104.546 12.067 104.567 11.9944 104.609 11.9343C104.652 11.8743 104.714 11.8304 104.785 11.81C105.137 11.6843 105.509 11.6232 105.884 11.63C106.242 11.5999 106.604 11.6703 106.924 11.8331C107.244 11.9959 107.511 12.2444 107.694 12.55C108.036 12.2302 108.443 11.9835 108.888 11.8252C109.332 11.6669 109.805 11.6005 110.277 11.63C110.735 11.608 111.192 11.6925 111.611 11.8767C112.029 12.0609 112.398 12.3395 112.687 12.69C113.024 12.3303 113.437 12.0486 113.898 11.8653C114.359 11.682 114.855 11.6016 115.351 11.63C115.795 11.6096 116.238 11.6799 116.653 11.8365C117.068 11.9932 117.445 12.2327 117.761 12.54C118.071 12.8605 118.31 13.2394 118.465 13.6536C118.621 14.0679 118.69 14.509 118.667 14.95V16.88C118.667 17.26 118.839 17.45 119.165 17.45C119.322 17.4572 119.48 17.4404 119.633 17.4C119.843 17.4 119.955 17.48 119.968 17.64L120.06 18.89Z" fill="#737680"/>
<path d="M0.812213 10.57C1.56249 7.60469 3.3001 4.97144 5.74838 3.08954C8.19667 1.20764 11.2149 0.185303 14.3224 0.185303C17.4299 0.185303 20.4481 1.20764 22.8964 3.08954C25.3447 4.97144 27.0823 7.60469 27.8326 10.57H26.6122C24.5536 10.5402 22.5372 11.1452 20.8461 12.3C20.7485 12.3695 20.6466 12.433 20.541 12.49H20.3987C20.2931 12.433 20.1912 12.3695 20.0936 12.3C18.3875 11.1719 16.3783 10.5694 14.3224 10.5694C12.2665 10.5694 10.2572 11.1719 8.5512 12.3C8.4536 12.3695 8.35171 12.433 8.24611 12.49H8.10374C7.99814 12.433 7.89625 12.3695 7.79866 12.3C6.1076 11.1452 4.09118 10.5402 2.03255 10.57H0.812213ZM24.4156 16.84C25.0421 16.3603 25.8185 16.1093 26.6122 16.13H28.2495V12.92H26.6122C25.2141 12.9034 23.8481 13.3313 22.7173 14.14C22.081 14.6013 21.3112 14.8502 20.5207 14.8502C19.7301 14.8502 18.9604 14.6013 18.3241 14.14C17.1647 13.3464 15.7859 12.921 14.3732 12.921C12.9606 12.921 11.5818 13.3464 10.4224 14.14C9.78608 14.6013 9.01631 14.8502 8.22577 14.8502C7.43524 14.8502 6.66547 14.6013 6.02916 14.14C4.88449 13.321 3.49878 12.8925 2.0834 12.92H0.395264V16.13H2.03255C2.82629 16.1093 3.60271 16.3603 4.22916 16.84C5.38646 17.6342 6.7637 18.06 8.17493 18.06C9.58615 18.06 10.9634 17.6342 12.1207 16.84C12.748 16.3618 13.5238 16.111 14.3173 16.13C15.1112 16.1076 15.8883 16.3588 16.5139 16.84C17.6733 17.6337 19.0521 18.0591 20.4648 18.0591C21.8774 18.0591 23.2562 17.6337 24.4156 16.84ZM24.4156 22.58C25.0421 22.1003 25.8185 21.8493 26.6122 21.87H28.2495V18.66H26.6122C25.2141 18.6434 23.8481 19.0713 22.7173 19.88C22.081 20.3413 21.3112 20.5902 20.5207 20.5902C19.7301 20.5902 18.9604 20.3413 18.3241 19.88C17.1647 19.0864 15.7859 18.661 14.3732 18.661C12.9606 18.661 11.5818 19.0864 10.4224 19.88C9.78608 20.3413 9.01631 20.5902 8.22577 20.5902C7.43524 20.5902 6.66547 20.3413 6.02916 19.88C4.88449 19.061 3.49878 18.6325 2.0834 18.66H0.395264V21.87H2.03255C2.82629 21.8493 3.60271 22.1003 4.22916 22.58C5.38646 23.3742 6.7637 23.8 8.17493 23.8C9.58615 23.8 10.9634 23.3742 12.1207 22.58C12.748 22.1018 13.5238 21.851 14.3173 21.87C15.1112 21.8476 15.8883 22.0988 16.5139 22.58C17.6733 23.3737 19.0521 23.7991 20.4648 23.7991C21.8774 23.7991 23.2562 23.3737 24.4156 22.58Z" fill="#737680"/>
</g>
<defs>
<clipPath id="clip0_5_92">
<rect width="120" height="24" fill="white" transform="translate(0.344482)"/>
</clipPath>
</defs>
</svg>
