<svg width="121" height="25" viewBox="0 0 121 25" fill="none" xmlns="http://www.w3.org/2000/svg">
<g clip-path="url(#clip0_5_78)">
<path d="M18.3612 11.0455C18.0268 11.386 17.7707 11.7969 17.6112 12.2488C17.4517 12.7009 17.3926 13.183 17.4383 13.6607L17.4224 13.6447C17.4693 14.2071 17.3944 14.773 17.2029 15.303C17.0113 15.833 16.7077 16.3144 16.3134 16.7135C15.9189 17.1125 15.4433 17.4197 14.9195 17.6136C14.3956 17.8074 13.8364 17.8832 13.2806 17.8357L13.2965 17.8518C12.6317 17.7892 11.9641 17.9355 11.3845 18.271C10.8049 18.6064 10.3418 19.1146 10.058 19.7262C9.77432 20.3378 9.68397 21.023 9.7992 21.6885C9.91444 22.3539 10.2297 22.9672 10.702 23.4447C11.1744 23.9222 11.7807 24.2407 12.4384 24.3567C13.0962 24.4728 13.7733 24.3807 14.3774 24.093C14.9815 23.8055 15.4833 23.3363 15.8143 22.7495C16.1453 22.1627 16.2893 21.487 16.2268 20.8143L16.2436 20.8304C16.1967 20.268 16.2716 19.7021 16.4632 19.1721C16.6547 18.642 16.9583 18.1606 17.3527 17.7615C17.747 17.3625 18.2227 17.0554 18.7465 16.8615C19.2703 16.6677 19.8296 16.5918 20.3853 16.6393L20.3686 16.6232C20.9116 16.6727 21.4582 16.5826 21.9577 16.3613C22.4572 16.14 22.8933 15.7948 23.2258 15.3575C23.5584 14.9203 23.7764 14.4051 23.8598 13.8599C23.9431 13.3147 23.8891 12.757 23.7027 12.2385C23.5164 11.7199 23.2037 11.2574 22.7937 10.8938C22.3837 10.5301 21.8895 10.2772 21.3571 10.1581C20.8246 10.0392 20.2712 10.0581 19.748 10.2133C19.2248 10.3684 18.7486 10.6547 18.3639 11.0455H18.3612Z" fill="#737680"/>
<path d="M11.8522 15.7465L11.8354 15.7304C12.3078 15.7785 12.7848 15.7198 13.232 15.5586C13.6792 15.3973 14.0854 15.1376 14.4212 14.7981C14.757 14.4585 15.0141 14.0476 15.1738 13.5952C15.3335 13.1428 15.3918 12.6602 15.3445 12.1822L15.3613 12.1982C15.3144 11.6358 15.3893 11.0699 15.5809 10.5398C15.7725 10.0098 16.076 9.52851 16.4704 9.1294C16.8647 8.73035 17.3404 8.42319 17.8643 8.22935C18.388 8.03552 18.9473 7.95969 19.503 8.00717L19.4863 7.99109C20.1511 8.05427 20.8191 7.90838 21.399 7.57333C21.9788 7.23827 22.4424 6.73035 22.7265 6.11886C23.0108 5.50738 23.1015 4.82209 22.9866 4.15645C22.8717 3.49082 22.5567 2.87726 22.0845 2.39946C21.6123 1.92167 21.006 1.60288 20.3482 1.48661C19.6904 1.37034 19.0132 1.46222 18.4088 1.74974C17.8046 2.03725 17.3026 2.5064 16.9715 3.09319C16.6404 3.67998 16.4963 4.35584 16.5586 5.02859L16.5428 5.01163C16.5899 5.57403 16.515 6.14005 16.3235 6.67016C16.132 7.20026 15.8285 7.68168 15.4341 8.08078C15.0397 8.47989 14.5639 8.78706 14.04 8.98083C13.5162 9.17458 12.9568 9.25029 12.401 9.2027L12.4169 9.21967C11.9445 9.17154 11.4675 9.2302 11.0203 9.39145C10.5731 9.55261 10.167 9.81243 9.83114 10.152C9.49531 10.4915 9.23828 10.9024 9.07856 11.3548C8.91887 11.8073 8.86054 12.2898 8.90778 12.7679L8.8919 12.7518C8.93865 13.3141 8.86361 13.88 8.67201 14.41C8.4804 14.9399 8.17683 15.4213 7.7825 15.8203C7.38816 16.2193 6.91253 16.5265 6.3888 16.7204C5.86507 16.9142 5.30585 16.9902 4.75013 16.9429L4.76602 16.959C4.10118 16.8957 3.43327 17.0416 2.85338 17.3767C2.27349 17.7118 1.80986 18.2197 1.52573 18.8312C1.2416 19.4427 1.15079 20.128 1.2657 20.7936C1.3806 21.4592 1.69564 22.0728 2.16781 22.5506C2.64 23.0284 3.24633 23.3472 3.90413 23.4634C4.56194 23.5797 5.23917 23.4878 5.84347 23.2003C6.44776 22.9128 6.9497 22.4437 7.28081 21.8569C7.61192 21.27 7.7561 20.5942 7.69366 19.9215L7.71043 19.9375C7.66351 19.3751 7.73845 18.8092 7.93 18.2791C8.12155 17.7491 8.42511 17.2678 8.81948 16.8687C9.21384 16.4697 9.68952 16.1624 10.2134 15.9687C10.7371 15.7748 11.2965 15.699 11.8522 15.7465Z" fill="#737680"/>
<path d="M5.93864 13.9544C6.27307 13.6141 6.52911 13.2032 6.6885 12.7511C6.84788 12.2991 6.90668 11.8169 6.8607 11.3393L6.87746 11.3553C6.83051 10.7928 6.90548 10.2267 7.09713 9.6965C7.28879 9.16632 7.59251 8.68489 7.98708 8.28579C8.38165 7.88669 8.85757 7.57956 9.38155 7.38586C9.90558 7.19214 10.4651 7.11652 11.021 7.16427L11.0042 7.14819C11.6688 7.2112 12.3365 7.06523 12.9161 6.73019C13.4957 6.39517 13.9591 5.88737 14.2431 5.27608C14.527 4.66478 14.6177 3.97973 14.5028 3.31435C14.3879 2.64896 14.073 2.03564 13.601 1.55802C13.129 1.08039 12.5229 0.761714 11.8653 0.645443C11.2078 0.529172 10.5308 0.620967 9.92667 0.908311C9.32252 1.19565 8.82075 1.66455 8.48965 2.25107C8.15857 2.83759 8.01431 3.51318 8.07658 4.18569L8.0607 4.16962C8.1076 4.73199 8.03267 5.29794 7.84111 5.82798C7.64956 6.35802 7.34601 6.83936 6.95163 7.23844C6.55726 7.63751 6.08157 7.94468 5.55777 8.13851C5.03397 8.33234 4.47468 8.40817 3.91893 8.36069L3.93481 8.37677C3.39179 8.32749 2.84525 8.41771 2.34585 8.63907C1.84646 8.86043 1.41037 9.20578 1.07797 9.6431C0.745579 10.0803 0.527649 10.5955 0.444377 11.1407C0.361105 11.686 0.415183 12.2436 0.601602 12.762C0.788021 13.2805 1.10075 13.7429 1.5108 14.1065C1.92086 14.4702 2.41498 14.7231 2.94737 14.842C3.47976 14.9609 4.0332 14.9419 4.5564 14.7868C5.0796 14.6316 5.55564 14.3453 5.94039 13.9544H5.93864Z" fill="#737680"/>
<path d="M33.2712 5.04913H35.8918V17.9536H33.2712V5.04913Z" fill="#737680"/>
<path d="M37.376 13.5348C37.3724 12.6075 37.6407 11.6998 38.1472 10.927C38.6537 10.1541 39.3755 9.55071 40.2211 9.19321C41.0668 8.83579 41.9982 8.74034 42.8975 8.91899C43.7968 9.09759 44.6235 9.54232 45.2728 10.1968C45.9221 10.8512 46.3649 11.6859 46.545 12.5952C46.7252 13.5045 46.6346 14.4474 46.2847 15.3045C45.9349 16.1616 45.3415 16.8945 44.5798 17.41C43.818 17.9256 42.9222 18.2009 42.0057 18.2009C41.3974 18.2079 40.7937 18.0921 40.2301 17.8604C39.6665 17.6286 39.1542 17.2854 38.7232 16.851C38.292 16.4166 37.9509 15.8995 37.7197 15.3302C37.4883 14.7608 37.3715 14.1504 37.376 13.5348ZM44.0148 13.5348C44.0039 13.1351 43.8767 12.7475 43.6493 12.4204C43.4219 12.0935 43.1042 11.8415 42.7361 11.6962C42.3679 11.5509 41.9656 11.5186 41.5794 11.6034C41.1932 11.6882 40.8403 11.8862 40.5647 12.1729C40.2892 12.4595 40.1032 12.8221 40.0302 13.2151C39.9571 13.608 40.0002 14.0141 40.154 14.3825C40.3078 14.7508 40.5654 15.0652 40.8947 15.2862C41.2241 15.5071 41.6105 15.625 42.0057 15.625C42.2763 15.6323 42.5455 15.5828 42.7963 15.4795C43.0471 15.3763 43.2741 15.2217 43.4628 15.0254C43.6515 14.8289 43.7981 14.5951 43.893 14.3386C43.9881 14.082 44.0295 13.8084 44.0148 13.5348Z" fill="#737680"/>
<path d="M57.0798 9.1152V17.5081C57.0798 20.4777 54.791 21.7331 52.4677 21.7331C51.6497 21.795 50.8307 21.6278 50.1004 21.2498C49.3701 20.8718 48.7568 20.2976 48.3277 19.5902L50.5636 18.2822C50.744 18.6509 51.0312 18.9551 51.3872 19.1541C51.743 19.3531 52.1505 19.4373 52.5551 19.3956C52.8136 19.4318 53.0769 19.4088 53.3254 19.3281C53.5739 19.2475 53.8014 19.1114 53.9909 18.9298C54.1805 18.7482 54.3272 18.5259 54.4203 18.2791C54.5135 18.0324 54.5505 17.7677 54.5289 17.5045V16.6964C54.222 17.0764 53.8314 17.3782 53.3885 17.5778C52.9454 17.7773 52.4623 17.869 51.978 17.8456C50.8255 17.8088 49.7323 17.3197 48.9299 16.4816C48.1275 15.6437 47.6788 14.5227 47.6788 13.3558C47.6788 12.189 48.1275 11.068 48.9299 10.23C49.7323 9.39198 50.8255 8.90287 51.978 8.8661C52.4623 8.84257 52.9454 8.9343 53.3885 9.13386C53.8314 9.33341 54.222 9.63529 54.5289 10.0152V9.11341L57.0798 9.1152ZM54.5298 13.3572C54.5473 12.9298 54.4382 12.5069 54.2163 12.1429C53.9944 11.7788 53.6698 11.4903 53.2845 11.3145C52.8992 11.1386 52.4706 11.0835 52.0541 11.1562C51.6375 11.2289 51.252 11.426 50.9472 11.7223C50.6423 12.0186 50.432 12.4004 50.3434 12.8186C50.2548 13.2369 50.2918 13.6723 50.4499 14.069C50.6079 14.4657 50.8797 14.8056 51.2301 15.0447C51.5807 15.2838 51.9938 15.4113 52.4165 15.4107C52.6918 15.4302 52.9682 15.3911 53.2277 15.2959C53.4872 15.2007 53.7241 15.0516 53.9232 14.8581C54.1222 14.6647 54.2791 14.4312 54.3836 14.1726C54.488 13.9141 54.5378 13.6364 54.5298 13.3572Z" fill="#737680"/>
<path d="M58.5638 13.5348C58.5602 12.6075 58.8286 11.6998 59.3351 10.927C59.8416 10.1541 60.5633 9.55071 61.409 9.19321C62.2546 8.83579 63.1861 8.74034 64.0853 8.91899C64.9846 9.09759 65.8113 9.54232 66.4606 10.1968C67.11 10.8512 67.5527 11.6859 67.7329 12.5952C67.9131 13.5045 67.8225 14.4474 67.4726 15.3045C67.1228 16.1616 66.5294 16.8945 65.7676 17.41C65.0058 17.9256 64.11 18.2009 63.1935 18.2009C62.5853 18.2079 61.9815 18.0921 61.418 17.8604C60.8543 17.6286 60.342 17.2854 59.911 16.851C59.4799 16.4166 59.1388 15.8995 58.9075 15.3302C58.6762 14.7608 58.5593 14.1504 58.5638 13.5348ZM65.2027 13.5348C65.1917 13.1351 65.0646 12.7475 64.8372 12.4204C64.6097 12.0935 64.2921 11.8415 63.924 11.6962C63.5558 11.5509 63.1534 11.5186 62.7673 11.6034C62.3811 11.6882 62.0281 11.8862 61.7526 12.1729C61.4771 12.4595 61.2911 12.8221 61.218 13.2151C61.145 13.608 61.1881 14.0141 61.3418 14.3825C61.4956 14.7508 61.7533 15.0652 62.0826 15.2862C62.412 15.5071 62.7983 15.625 63.1935 15.625C63.4642 15.6323 63.7334 15.5828 63.9842 15.4795C64.235 15.3763 64.4619 15.2217 64.6507 15.0254C64.8394 14.8289 64.986 14.5951 65.0809 14.3386C65.1759 14.082 65.2174 13.8084 65.2027 13.5348Z" fill="#737680"/>
<path d="M69.0454 6.74641C69.0454 6.43172 69.1376 6.1241 69.3104 5.86245C69.4832 5.60081 69.7288 5.39687 70.0161 5.27644C70.3034 5.15602 70.6195 5.12452 70.9246 5.18591C71.2296 5.2473 71.5097 5.39884 71.7296 5.62135C71.9495 5.84386 72.0992 6.12736 72.1599 6.43601C72.2206 6.74464 72.1895 7.06455 72.0705 7.35528C71.9514 7.64602 71.7499 7.89451 71.4913 8.06934C71.2328 8.24417 70.9288 8.33748 70.6178 8.33748C70.2021 8.33329 69.8045 8.16432 69.5105 7.86684C69.2166 7.56935 69.0496 7.16709 69.0454 6.74641ZM69.3101 9.11517H71.9316V17.9545H69.3066L69.3101 9.11517Z" fill="#737680"/>
<path d="M83.2468 13.5348C83.2771 14.119 83.193 14.7035 82.9992 15.2547C82.8056 15.8058 82.506 16.3128 82.118 16.7464C81.73 17.1801 81.2611 17.5318 80.7383 17.7814C80.2154 18.0311 79.649 18.1736 79.0715 18.2009C78.5859 18.2278 78.1004 18.1448 77.6504 17.9583C77.2003 17.7718 76.7969 17.4862 76.4695 17.1223V21.4893H73.8489V9.1152H76.4695V9.94555C76.7971 9.58198 77.2006 9.29671 77.6506 9.11028C78.1006 8.9239 78.586 8.84111 79.0715 8.8679C79.6491 8.89511 80.2157 9.03761 80.7386 9.28725C81.2615 9.53689 81.7306 9.88868 82.1186 10.3224C82.5067 10.7562 82.8061 11.2633 82.9998 11.8147C83.1933 12.366 83.2773 12.9506 83.2468 13.5348ZM80.6262 13.5348C80.616 13.1212 80.4854 12.7197 80.2508 12.3808C80.0162 12.0418 79.688 11.7805 79.3073 11.6293C78.9266 11.4781 78.5104 11.444 78.1106 11.5311C77.7108 11.6181 77.3452 11.8227 77.0598 12.1189C76.7742 12.4152 76.5814 12.7901 76.5055 13.1967C76.4294 13.6033 76.4737 14.0236 76.6325 14.4048C76.7914 14.7862 77.0579 15.1115 77.3987 15.3404C77.7394 15.5691 78.1393 15.6912 78.5483 15.6911C78.8291 15.7038 79.1093 15.6562 79.3706 15.5516C79.6319 15.447 79.8684 15.2876 80.0646 15.084C80.2608 14.8805 80.4123 14.6372 80.5091 14.3702C80.6059 14.1032 80.6458 13.8186 80.6262 13.5348Z" fill="#737680"/>
<path d="M91.3336 15.3018C91.3336 17.3348 89.5875 18.2009 87.701 18.2009C86.9388 18.2707 86.1734 18.1076 85.5038 17.7326C84.8341 17.3576 84.2911 16.7879 83.9448 16.0973L86.2151 14.7893C86.307 15.1085 86.5043 15.3862 86.774 15.576C87.0438 15.7658 87.3698 15.8562 87.6975 15.8321C88.3257 15.8321 88.6407 15.6375 88.6407 15.2848C88.6407 14.3116 84.3428 14.825 84.3428 11.767C84.3428 9.83929 85.9504 8.86784 87.7672 8.86784C88.4501 8.84597 89.126 9.00991 89.7251 9.3425C90.3242 9.67509 90.8245 10.1643 91.1731 10.7589L88.9372 11.9786C88.8392 11.7471 88.676 11.5498 88.4679 11.4115C88.2598 11.2732 88.0161 11.2 87.7672 11.2009C87.3128 11.2009 87.0331 11.3795 87.0331 11.6955C87.0366 12.7036 91.3336 12.0313 91.3336 15.3018Z" fill="#737680"/>
<path d="M100.906 9.11517V17.9545H98.2857V17.1232C97.983 17.49 97.5992 17.779 97.1651 17.9665C96.731 18.154 96.2598 18.2346 95.7886 18.2018C94.0239 18.2018 92.5239 16.9295 92.5239 14.5411V9.11517H95.1445V14.1527C95.1225 14.3632 95.1463 14.576 95.2142 14.7763C95.2813 14.9767 95.3916 15.1596 95.5363 15.3127C95.681 15.4656 95.8566 15.5848 96.0516 15.662C96.2457 15.7393 96.4548 15.7727 96.6639 15.7598C97.6248 15.7598 98.2883 15.1946 98.2883 13.9393V9.11785L100.906 9.11517Z" fill="#737680"/>
<path d="M115.933 12.5268V17.9536H113.312V12.7562C113.312 11.8723 112.893 11.3071 112.055 11.3071C111.181 11.3071 110.692 11.9259 110.692 12.9687V17.9536H108.072V12.7562C108.072 11.8723 107.653 11.3071 106.814 11.3071C105.94 11.3071 105.451 11.9259 105.451 12.9687V17.9536H102.831V9.11428H105.451V9.92678C105.723 9.56633 106.08 9.28044 106.488 9.09535C106.897 8.91019 107.346 8.83167 107.792 8.86694C108.24 8.84474 108.687 8.94053 109.088 9.14481C109.489 9.34919 109.83 9.65517 110.08 10.033C110.37 9.63776 110.755 9.32348 111.198 9.11955C111.641 8.91564 112.128 8.82872 112.613 8.86694C114.619 8.86783 115.933 10.317 115.933 12.5268Z" fill="#737680"/>
<path d="M118.149 9.06072C119.223 9.06072 120.094 8.17967 120.094 7.09286C120.094 6.00604 119.223 5.125 118.149 5.125C117.075 5.125 116.204 6.00604 116.204 7.09286C116.204 8.17967 117.075 9.06072 118.149 9.06072Z" fill="#737680"/>
</g>
<defs>
<clipPath id="clip0_5_78">
<rect width="120" height="25" fill="white" transform="translate(0.344482)"/>
</clipPath>
</defs>
</svg>
