<svg width="121" height="28" viewBox="0 0 121 28" fill="none" xmlns="http://www.w3.org/2000/svg">
<g clip-path="url(#clip0_5_72)">
<path d="M34.5726 8.64267H37.5819V20.776H34.5726V8.64267ZM38.7819 16.212C38.7819 13.2067 40.6569 11.4053 43.4694 11.4053C46.2819 11.4053 48.1569 13.2067 48.1569 16.212C48.1569 19.2174 46.3476 21.0373 43.4694 21.0373C40.5913 21.0373 38.7819 19.2827 38.7819 16.212ZM45.1757 16.212C45.1757 14.56 44.5288 13.5893 43.4976 13.5893C42.4663 13.5893 41.8288 14.5227 41.8288 16.212C41.8288 17.9013 42.4663 18.8253 43.4976 18.8253C44.5288 18.8253 45.1944 17.9013 45.1944 16.2213L45.1757 16.212ZM49.3569 21.4013H52.2632C52.3955 21.7128 52.6266 21.9727 52.9211 22.1412C53.2157 22.3098 53.5575 22.3777 53.8944 22.3347C55.0476 22.3347 55.6476 21.7187 55.6476 20.804V19.124H55.6569C55.4086 19.6471 55.007 20.0831 54.505 20.3747C54.003 20.6663 53.4241 20.7996 52.8444 20.7573C50.6413 20.7573 49.1788 19.0867 49.1788 16.212C49.1788 13.3373 50.5757 11.5453 52.9288 11.5453C53.5233 11.5137 54.1131 11.6663 54.6167 11.9822C55.1204 12.2982 55.5133 12.7619 55.7413 13.3093H55.6569V11.62H58.6382V20.7107C58.6382 22.904 56.6882 24.276 53.8195 24.276C51.2132 24.2667 49.5444 23.0813 49.3757 21.4107L49.3569 21.4013ZM55.6569 16.212C55.6569 14.7467 54.9819 13.8227 53.9132 13.8227C52.8444 13.8227 52.1882 14.756 52.1882 16.212C52.1882 17.668 52.8351 18.5267 53.9132 18.5267C54.9913 18.5267 55.6569 17.7333 55.6569 16.212ZM59.8288 16.212C59.8288 13.2067 61.7038 11.4053 64.5163 11.4053C67.3288 11.4053 69.2038 13.2067 69.2038 16.212C69.2038 19.2174 67.3851 21.0373 64.5163 21.0373C61.6476 21.0373 59.8476 19.2827 59.8476 16.212H59.8288ZM66.2226 16.212C66.2226 14.56 65.5663 13.5893 64.5445 13.5893C63.5226 13.5893 62.8757 14.5227 62.8757 16.212C62.8757 17.9013 63.5132 18.8253 64.5445 18.8253C65.5757 18.8253 66.2413 17.9013 66.2413 16.2213L66.2226 16.212ZM70.4226 9.40802C70.4095 9.10282 70.4884 8.80072 70.6492 8.54057C70.8099 8.2804 71.0453 8.07409 71.3248 7.94815C71.6044 7.82222 71.9154 7.78243 72.2178 7.8339C72.5202 7.88538 72.8003 8.02576 73.0219 8.23699C73.2435 8.44823 73.3966 8.72065 73.4615 9.01921C73.5263 9.31777 73.4999 9.62884 73.3857 9.9123C73.2715 10.1958 73.0748 10.4389 72.8207 10.6101C72.5666 10.7814 72.2669 10.8731 71.9601 10.8733C71.764 10.8783 71.5689 10.8444 71.386 10.7738C71.2032 10.703 71.0363 10.5968 70.895 10.4614C70.7537 10.3259 70.6408 10.1639 70.563 9.98463C70.4851 9.80543 70.4438 9.6126 70.4413 9.41735L70.4226 9.40802ZM70.4226 11.6107H73.4694V20.8133H70.4695L70.4226 11.6107ZM84.4288 16.212C84.4288 19.208 83.0788 20.944 80.782 20.944C80.194 20.9801 79.6089 20.8357 79.106 20.5303C78.603 20.2248 78.2064 19.7731 77.9695 19.236H77.9132V23.772H74.9038V11.6387H77.8945V13.2813H77.9507C78.1794 12.7338 78.5723 12.2696 79.0755 11.9523C79.5789 11.6349 80.1682 11.4798 80.7632 11.508C83.1257 11.4893 84.4851 13.216 84.4851 16.2213L84.4288 16.212ZM81.3632 16.212C81.3632 14.756 80.6788 13.8133 79.6194 13.8133C78.5601 13.8133 77.8945 14.7467 77.8851 16.212C77.8757 17.6774 78.5601 18.6013 79.6194 18.6013C80.6788 18.6013 81.4195 17.7333 81.4195 16.2213L81.3632 16.212ZM89.5663 11.396C92.0882 11.396 93.6538 12.5813 93.6726 14.4853H90.9257C90.9257 13.8227 90.3726 13.412 89.5476 13.412C88.7226 13.412 88.3288 13.7293 88.3288 14.2053C88.3288 14.6813 88.6757 14.8307 89.3694 14.9707L91.3007 15.3627C93.1757 15.7547 93.9257 16.5013 93.9257 17.892C93.9257 19.7587 92.1913 21.028 89.6132 21.028C87.0351 21.028 85.357 19.796 85.2351 17.92H88.1507C88.2351 18.6013 88.7788 19.0027 89.6601 19.0027C90.5413 19.0027 90.9538 18.7227 90.9538 18.228C90.9538 17.7333 90.6726 17.6493 89.9507 17.5L88.207 17.136C86.3976 16.7533 85.4507 15.8107 85.4507 14.4013C85.507 12.572 87.082 11.4053 89.6226 11.4053L89.5663 11.396ZM104.004 20.804H101.088V19.0773H101.032C100.869 19.6533 100.514 20.1567 100.024 20.5044C99.5348 20.8523 98.9413 21.0237 98.3413 20.9907C97.8885 21.0053 97.4366 20.9245 97.0176 20.7533C96.5985 20.5823 96.2198 20.3247 95.9076 19.9978C95.5944 19.6708 95.3554 19.2817 95.2044 18.8561C95.0535 18.4305 94.9945 17.9778 95.032 17.528V11.62H98.0413V16.884C98.0413 17.9667 98.6132 18.5547 99.5507 18.5547C99.771 18.553 99.9876 18.5044 100.187 18.4122C100.387 18.3199 100.564 18.186 100.707 18.0197C100.85 17.8534 100.956 17.6584 101.017 17.448C101.077 17.2376 101.092 17.0166 101.06 16.8V11.62H104.06L104.004 20.804ZM105.457 11.6107H108.382V13.384H108.448C108.609 12.8159 108.956 12.3172 109.432 11.9659C109.909 11.6147 110.489 11.4306 111.082 11.4427C111.677 11.3912 112.271 11.5625 112.745 11.9233C113.22 12.284 113.543 12.8082 113.651 13.3933H113.782C113.969 12.8051 114.346 12.2949 114.855 11.9422C115.364 11.5894 115.976 11.4138 116.594 11.4427C117.006 11.4271 117.417 11.4982 117.798 11.6514C118.181 11.8044 118.526 12.0362 118.812 12.3314C119.098 12.6265 119.317 12.9785 119.457 13.3641C119.597 13.7498 119.654 14.1605 119.623 14.5693V20.8133H116.594V15.3347C116.594 14.4013 116.154 13.8787 115.301 13.8787C115.111 13.8756 114.924 13.9133 114.75 13.9891C114.577 14.065 114.423 14.1773 114.298 14.3182C114.172 14.4592 114.078 14.6254 114.023 14.8058C113.969 14.9861 113.954 15.176 113.979 15.3627V20.8133H111.11V15.3067C111.11 14.3733 110.651 13.8787 109.826 13.8787C109.634 13.8772 109.445 13.9164 109.271 13.9937C109.095 14.071 108.94 14.1846 108.812 14.327C108.686 14.4693 108.591 14.637 108.535 14.8188C108.478 15.0007 108.461 15.1925 108.485 15.3813V20.8133H105.476L105.457 11.6107Z" fill="#737680"/>
<path d="M28.6195 9.43598C28.6195 7.57834 28.0561 5.76399 27.0029 4.23058C25.9497 2.69717 24.4558 1.51618 22.717 0.84231C20.9783 0.168438 19.0755 0.0331031 17.2582 0.454029C15.4407 0.874955 13.7935 1.83251 12.532 3.20129H0.83197V27.7853H25.5351V16.296C26.5046 15.4326 27.2805 14.3754 27.812 13.1934C28.3435 12.0113 28.6186 10.731 28.6195 9.43598ZM23.8663 9.43598C23.8682 10.3261 23.6048 11.1968 23.1094 11.9378C22.6139 12.6788 21.9089 13.2569 21.0834 13.5988C20.2578 13.9407 19.349 14.0312 18.4718 13.8587C17.5946 13.6861 16.7886 13.2584 16.1557 12.6297C15.5228 12.0009 15.0915 11.1993 14.9164 10.3264C14.7413 9.45343 14.8302 8.54845 15.172 7.72589C15.5137 6.90331 16.0929 6.20017 16.8361 5.70544C17.5795 5.2107 18.4535 4.94663 19.3476 4.94662C20.5444 4.94662 21.6924 5.4193 22.5395 6.26095C23.3867 7.10259 23.8639 8.24445 23.8663 9.43598ZM20.782 23.0533H5.5851V7.93329H10.2163C10.1269 8.42932 10.0798 8.93201 10.0757 9.43598C10.0782 11.8834 11.0559 14.2298 12.7942 15.9603C14.5324 17.6908 16.8893 18.6641 19.3476 18.6666C19.8282 18.6641 20.3079 18.6235 20.782 18.5453V23.0533Z" fill="#737680"/>
</g>
<defs>
<clipPath id="clip0_5_72">
<rect width="120" height="28" fill="white" transform="translate(0.344421)"/>
</clipPath>
</defs>
</svg>
