<svg width="121" height="28" viewBox="0 0 121 28" fill="none" xmlns="http://www.w3.org/2000/svg">
<g clip-path="url(#clip0_5_59)">
<path d="M29.2551 6.76666H32.0244V20.2533H29.2551V6.76666Z" fill="#737680"/>
<path d="M33.5752 15.6334C33.5752 14.6631 33.8602 13.7145 34.3939 12.9081C34.9276 12.1017 35.6861 11.4738 36.5733 11.1037C37.4604 10.7336 38.4362 10.6382 39.377 10.8297C40.3178 11.021 41.1813 11.4905 41.8579 12.1785C42.5345 12.8666 42.9939 13.7423 43.1777 14.6947C43.3616 15.647 43.2617 16.6331 42.8906 17.5279C42.5196 18.4228 41.8942 19.1862 41.0936 19.7212C40.293 20.2563 39.3533 20.5389 38.3937 20.5334C37.7572 20.5384 37.1261 20.4148 36.5375 20.17C35.9487 19.9252 35.4143 19.564 34.9655 19.1076C34.5167 18.6513 34.1627 18.1088 33.9239 17.5122C33.6852 16.9157 33.5665 16.2769 33.5752 15.6334ZM40.5168 15.6334C40.5059 15.215 40.3732 14.8092 40.1354 14.4667C39.8976 14.1242 39.5652 13.8602 39.1799 13.7077C38.7945 13.5552 38.3732 13.5209 37.9686 13.6092C37.5641 13.6976 37.1943 13.9045 36.9055 14.2042C36.6167 14.504 36.4216 14.8831 36.3448 15.2944C36.268 15.7055 36.3128 16.1305 36.4736 16.5161C36.6344 16.9017 36.904 17.2308 37.2488 17.4622C37.5936 17.6937 37.9982 17.8172 38.4121 17.8174C38.6939 17.8229 38.9738 17.7696 39.2343 17.6608C39.4948 17.5521 39.7303 17.3902 39.9261 17.1851C40.1219 16.9802 40.2737 16.7366 40.3722 16.4695C40.4706 16.2026 40.5135 15.9178 40.4983 15.6334H40.5168Z" fill="#737680"/>
<path d="M54.169 11.0133V19.796C54.169 22.8947 51.769 24.2107 49.3413 24.2107C48.4851 24.2817 47.6262 24.1097 46.8613 23.7139C46.0964 23.3182 45.456 22.7144 45.0121 21.9707L47.3475 20.608C47.5368 20.9937 47.8378 21.3121 48.2105 21.5205C48.5832 21.7289 49.0099 21.8176 49.4336 21.7747C49.7036 21.8083 49.9776 21.7812 50.2361 21.6952C50.4944 21.6094 50.7308 21.4668 50.9285 21.2778C51.126 21.0887 51.2798 20.8578 51.3788 20.6016C51.4779 20.3455 51.5197 20.0704 51.5013 19.796V18.9467C51.1791 19.3417 50.7703 19.6553 50.3072 19.8627C49.844 20.0701 49.3396 20.1655 48.8336 20.1413C47.6096 20.1413 46.4357 19.6496 45.5701 18.7745C44.7045 17.8993 44.2183 16.7124 44.2183 15.4747C44.2183 14.237 44.7045 13.05 45.5701 12.1749C46.4357 11.2997 47.6096 10.808 48.8336 10.808C49.3396 10.7838 49.844 10.8792 50.3072 11.0866C50.7703 11.2939 51.1791 11.6076 51.5013 12.0027V11.0693L54.169 11.0133ZM51.5013 15.4467C51.5198 15.0002 51.4057 14.5582 51.1737 14.1778C50.9418 13.7974 50.6025 13.4958 50.1997 13.3118C49.7969 13.1279 49.3488 13.07 48.9131 13.1456C48.4775 13.2212 48.0742 13.4268 47.755 13.736C47.4359 14.0453 47.2156 14.444 47.1224 14.8809C47.0291 15.3177 47.0672 15.7728 47.2319 16.1875C47.3965 16.6023 47.6801 16.9578 48.0462 17.2083C48.4122 17.4588 48.844 17.593 49.286 17.5933C49.5744 17.6143 49.864 17.5739 50.136 17.4748C50.408 17.3756 50.6564 17.2198 50.8652 17.0175C51.074 16.8152 51.2384 16.5709 51.348 16.3003C51.4577 16.0297 51.5098 15.7389 51.5013 15.4467Z" fill="#737680"/>
<path d="M55.729 15.6334C55.729 14.6638 56.0134 13.7161 56.5464 12.9101C57.0793 12.104 57.8367 11.476 58.7227 11.1055C59.6088 10.7348 60.5837 10.6383 61.524 10.8282C62.4643 11.018 63.3278 11.4856 64.0051 12.1718C64.6826 12.8581 65.1434 13.7321 65.3293 14.6831C65.5153 15.6343 65.418 16.6198 65.0498 17.515C64.6816 18.4102 64.059 19.1748 63.2608 19.7121C62.4627 20.2493 61.5248 20.5352 60.5659 20.5334C59.9282 20.5396 59.2957 20.4171 58.7055 20.1729C58.1153 19.9287 57.5791 19.5679 57.1286 19.1115C56.6781 18.6551 56.3223 18.1124 56.0819 17.5151C55.8416 16.9179 55.7216 16.2781 55.729 15.6334ZM62.6706 15.6334C62.6597 15.2147 62.5267 14.8085 62.2886 14.4658C62.0503 14.1231 61.7175 13.8591 61.3315 13.7069C60.9456 13.5546 60.5238 13.5209 60.1191 13.6101C59.7142 13.6991 59.3445 13.9071 59.0561 14.2077C58.7676 14.5083 58.5733 14.8884 58.4975 15.3002C58.4218 15.7119 58.4679 16.1372 58.6301 16.5225C58.7923 16.908 59.0634 17.2364 59.4093 17.4668C59.7554 17.697 60.1609 17.819 60.5752 17.8174C60.8569 17.8229 61.1369 17.7697 61.3974 17.6608C61.6579 17.5521 61.8933 17.3902 62.0891 17.1852C62.2849 16.9802 62.4367 16.7366 62.5352 16.4696C62.6336 16.2026 62.6766 15.9179 62.6613 15.6334H62.6706Z" fill="#737680"/>
<path d="M66.686 8.54C66.686 8.21142 66.7823 7.89021 66.9629 7.61701C67.1434 7.3438 67.4001 7.13086 67.7003 7.00512C68.0005 6.87938 68.3309 6.84648 68.6496 6.91058C68.9683 6.97469 69.2611 7.13291 69.4908 7.36526C69.7207 7.59759 69.8771 7.89362 69.9406 8.21588C70.004 8.53815 69.9714 8.87219 69.8471 9.17576C69.7227 9.4793 69.5121 9.73877 69.2419 9.92133C68.9717 10.1039 68.654 10.2013 68.329 10.2013C67.8947 10.1965 67.4796 10.0199 67.1725 9.70937C66.8654 9.39885 66.6908 8.9791 66.686 8.54ZM66.9537 11.0133H69.7229V20.2533H66.9537V11.0133Z" fill="#737680"/>
<path d="M81.5752 15.6333C81.6062 16.2478 81.5168 16.8624 81.3119 17.4418C81.1071 18.0212 80.791 18.554 80.3818 19.0095C79.9726 19.4648 79.4783 19.834 78.9274 20.0955C78.3766 20.357 77.7801 20.5058 77.1721 20.5333C76.6562 20.568 76.1392 20.4844 75.6598 20.2889C75.1802 20.0933 74.7506 19.7908 74.4029 19.404V23.968H71.6337V11.0133H74.4029V11.8813C74.7511 11.4956 75.181 11.1944 75.6606 11.0004C76.1401 10.8065 76.6569 10.7247 77.1721 10.7613C77.7776 10.7888 78.3718 10.9368 78.9208 11.1965C79.4698 11.4563 79.9628 11.8228 80.3716 12.2753C80.7804 12.7277 81.0972 13.257 81.3037 13.8332C81.5102 14.4094 81.6024 15.021 81.5752 15.6333ZM78.806 15.6333C78.7951 15.1998 78.6578 14.7792 78.4115 14.4243C78.1652 14.0692 77.8208 13.7957 77.4214 13.6378C77.0219 13.4799 76.5852 13.4447 76.1662 13.5368C75.7471 13.6287 75.3641 13.8437 75.0654 14.1548C74.7666 14.4659 74.5653 14.8592 74.4866 15.2855C74.4081 15.7118 74.4556 16.1521 74.6234 16.5511C74.7911 16.9502 75.0718 17.2903 75.4299 17.5288C75.7881 17.7673 76.2079 17.8937 76.6367 17.892C76.9305 17.9046 77.2235 17.8543 77.4967 17.7443C77.7698 17.6344 78.0169 17.4672 78.2218 17.254C78.4266 17.0407 78.5845 16.7861 78.6852 16.5068C78.7859 16.2275 78.827 15.9298 78.806 15.6333Z" fill="#737680"/>
<path d="M90.0029 17.4813C90.0029 19.6093 88.1567 20.5147 86.1998 20.5147C85.4016 20.5873 84.6003 20.4162 83.8993 20.0235C83.1983 19.6309 82.6299 19.0347 82.2675 18.312L84.6491 16.9493C84.7434 17.2823 84.9479 17.5725 85.2286 17.7713C85.5092 17.9701 85.8488 18.0654 86.1906 18.0413C86.846 18.0413 87.1783 17.836 87.1783 17.4627C87.1783 16.4453 82.6829 16.9867 82.6829 13.7853C82.6829 11.7693 84.3629 10.7613 86.2644 10.7613C86.9872 10.7286 87.7054 10.8944 88.3424 11.2412C88.9795 11.5879 89.5118 12.1026 89.8829 12.7307L87.5014 14C87.3961 13.7592 87.2243 13.5543 87.0064 13.4103C86.7885 13.2662 86.534 13.1889 86.2737 13.188C85.7937 13.188 85.5075 13.3747 85.5075 13.7013C85.5075 14.7653 90.0029 14.0653 90.0029 17.4813Z" fill="#737680"/>
<path d="M100.037 11.0133V20.2533H97.2675V19.3853C96.9527 19.7695 96.553 20.0735 96.1017 20.273C95.6493 20.4724 95.1573 20.5616 94.6644 20.5333C92.8183 20.5333 91.2398 19.1986 91.2398 16.7066V11.0133H94.009V16.2866C93.9869 16.5071 94.0127 16.7297 94.0847 16.9391C94.1567 17.1485 94.2721 17.3396 94.4235 17.4994C94.5758 17.6591 94.7604 17.7836 94.9644 17.8643C95.1684 17.945 95.3872 17.9799 95.606 17.9666C96.6029 17.9666 97.3044 17.3693 97.3044 16.1V11.0133H100.037Z" fill="#737680"/>
<path d="M115.729 14.5787V20.2533H112.96V14.8213C112.96 13.888 112.526 13.3093 111.649 13.3093C110.772 13.3093 110.218 13.9533 110.218 15.0453V20.2533H107.449V14.8213C107.449 13.888 107.015 13.3093 106.138 13.3093C105.261 13.3093 104.707 13.9533 104.707 15.0453V20.2533H101.938V11.0133H104.707V11.8627C104.995 11.4875 105.368 11.1903 105.798 10.998C106.226 10.8058 106.696 10.7244 107.163 10.7613C107.631 10.7367 108.098 10.8355 108.517 11.0482C108.936 11.2609 109.293 11.5802 109.554 11.9747C109.858 11.5626 110.261 11.2351 110.724 11.0229C111.187 10.8107 111.696 10.7207 112.203 10.7613C114.363 10.7613 115.729 12.2733 115.729 14.5787Z" fill="#737680"/>
<path d="M12.7599 4.34002V0.373352H0.390625V27.6267H12.7599V23.66C10.2261 23.66 7.79596 22.6423 6.00426 20.8307C4.21257 19.0191 3.20601 16.562 3.20601 14C3.20601 11.438 4.21257 8.98097 6.00426 7.16937C7.79596 5.35777 10.2261 4.34002 12.7599 4.34002Z" fill="#737680"/>
<path d="M12.7598 4.34003V23.66C15.2936 23.66 17.7237 22.6423 19.5154 20.8307C21.3071 19.0191 22.3136 16.562 22.3136 14C22.3136 11.438 21.3071 8.98098 19.5154 7.16938C17.7237 5.35778 15.2936 4.34003 12.7598 4.34003Z" fill="#737680"/>
<path d="M118.055 10.9573C119.177 10.9573 120.086 10.0381 120.086 8.90404C120.086 7.77001 119.177 6.85071 118.055 6.85071C116.934 6.85071 116.024 7.77001 116.024 8.90404C116.024 10.0381 116.934 10.9573 118.055 10.9573Z" fill="#737680"/>
</g>
<defs>
<clipPath id="clip0_5_59">
<rect width="120" height="28" fill="white" transform="translate(0.344421)"/>
</clipPath>
</defs>
</svg>
