<svg width="25" height="28" viewBox="0 0 25 28" fill="none" xmlns="http://www.w3.org/2000/svg">
<path d="M0.777771 27.3125V0.6875L2.77777 2.6875L4.77777 0.6875L6.77777 2.6875L8.77777 0.6875L10.7778 2.6875L12.7778 0.6875L14.7778 2.6875L16.7778 0.6875L18.7778 2.6875L20.7778 0.6875L22.7778 2.6875L24.7778 0.6875V27.3125L22.7778 25.3125L20.7778 27.3125L18.7778 25.3125L16.7778 27.3125L14.7778 25.3125L12.7778 27.3125L10.7778 25.3125L8.77777 27.3125L6.77777 25.3125L4.77777 27.3125L2.77777 25.3125L0.777771 27.3125ZM20.7778 10V7.3125H4.77777V10H20.7778ZM20.7778 15.3125V12.6875H4.77777V15.3125H20.7778ZM20.7778 20.6875V18H4.77777V20.6875H20.7778Z" fill="#CF6F49"/>
</svg>
