<svg width="18" height="16" viewBox="0 0 18 16" fill="none" xmlns="http://www.w3.org/2000/svg">
<path d="M17.9727 2.8424C17.5083 3.46192 16.9469 4.00233 16.3102 4.44276C16.3102 4.60459 16.3102 4.76642 16.3102 4.93725C16.3153 7.8761 15.1414 10.6941 13.0517 12.7595C10.9619 14.8249 8.1311 15.9649 5.19393 15.9239C3.49587 15.9296 1.81955 15.5419 0.2963 14.7911C0.21416 14.7552 0.16119 14.674 0.1615 14.5843V14.4854C0.1615 14.3563 0.26611 14.2517 0.39515 14.2517C2.0643 14.1966 3.6739 13.6179 4.99622 12.5974C3.48541 12.5669 2.12607 11.6719 1.50048 10.2957C1.46889 10.2206 1.47872 10.1343 1.52645 10.0682C1.57417 10.0021 1.65288 9.9657 1.73413 9.9721C2.1933 10.0182 2.65706 9.9755 3.10008 9.8462C1.43227 9.5 0.17909 8.1154 -0.000260007 6.4207C-0.00663001 6.3394 0.0298001 6.2607 0.0958801 6.2129C0.16195 6.1652 0.24812 6.1553 0.32326 6.187C0.77082 6.3845 1.25397 6.4885 1.74312 6.4926C0.28172 5.53346 -0.34951 3.70905 0.20643 2.05122C0.26382 1.89013 0.40169 1.77112 0.56938 1.73794C0.73706 1.70475 0.90984 1.76228 1.0242 1.88939C2.99627 3.98825 5.70592 5.23896 8.5818 5.37779C8.5082 5.08385 8.472 4.78176 8.474 4.47872C8.5009 2.88972 9.4841 1.47421 10.9633 0.894872C12.4424 0.315542 14.1248 0.687032 15.2229 1.83544C15.9713 1.69285 16.6949 1.44145 17.3706 1.08921C17.4201 1.05831 17.4829 1.05831 17.5324 1.08921C17.5633 1.13873 17.5633 1.20152 17.5324 1.25104C17.2051 2.00052 16.6522 2.62912 15.9508 3.04919C16.565 2.97796 17.1684 2.83307 17.7481 2.61764C17.7969 2.58442 17.861 2.58442 17.9098 2.61764C17.9507 2.63634 17.9813 2.67211 17.9934 2.71542C18.0055 2.75873 17.9979 2.80518 17.9727 2.8424Z" fill="#2A2C1F"/>
</svg>
